<svg width="30" height="40" viewBox="0 0 30 40" fill="none" xmlns="http://www.w3.org/2000/svg">
<mask id="mask0_231_67" style="mask-type:luminance" maskUnits="userSpaceOnUse" x="0" y="0" width="30" height="40">
<path d="M30 0H0V40H30V0Z" fill="white"/>
</mask>
<g mask="url(#mask0_231_67)">
<path d="M23.8126 9.96355C26.9753 7.61602 28.6413 4.67239 27.5338 3.38879C26.4263 2.10517 22.9647 2.96765 19.802 5.31518C16.6394 7.66272 14.9733 10.6063 16.0808 11.89C17.1883 13.1736 20.6499 12.3111 23.8126 9.96355Z" fill="#29C16E"/>
<path d="M13.2054 12.2688C14.1573 11.386 12.8103 8.70514 10.1969 6.28109C7.58348 3.85706 4.69323 2.60772 3.74137 3.49061C2.7895 4.3735 4.13645 7.05431 6.74988 9.47834C9.36329 11.9024 12.2535 13.1517 13.2054 12.2688Z" fill="#29C16E"/>
<path d="M26.0147 25.3122C27.3987 24.2851 26.4688 21.0743 23.9379 18.1408C21.407 15.2073 18.2334 13.662 16.8495 14.6892C15.4656 15.7164 16.3954 18.9272 18.9264 21.8606C21.4572 24.7941 24.6309 26.3394 26.0147 25.3122Z" fill="#3CA4EF"/>
<path d="M3.09698 26.4185C3.09698 29.4743 4.40572 32.405 6.73529 34.5657C9.06486 36.7265 12.2244 37.9404 15.519 37.9404C22.3796 37.9404 32.6201 27.5029 26.0974 25.5344C18.941 23.3751 15.6406 15.1203 14.1574 14.966C7.33981 14.2564 3.09698 20.0552 3.09698 26.4185Z" fill="#3CA4EF"/>
<path d="M7.35125e-08 1.73887C0.00350984 4.22318 0.722988 6.66147 2.08393 8.80118C3.44486 10.9409 5.39777 12.7042 7.7404 13.9086C6.51265 14.5402 5.38616 15.3279 4.39364 16.2489C2.16709 18.3121 0.696402 20.9725 0.189709 23.8535C-0.316984 26.7346 0.165975 29.6906 1.57024 32.3031C2.97449 34.9156 5.22894 37.0524 8.01457 38.4111C10.8002 39.7696 13.9759 40.2814 17.0923 39.8737C20.2087 39.466 23.1081 38.1597 25.3801 36.1395C27.652 34.1193 29.1813 31.4877 29.7519 28.6168C30.3224 25.746 29.9053 22.7814 28.5593 20.1426C27.2134 17.5039 25.0068 15.3245 22.2521 13.913C24.5979 12.7103 26.5535 10.947 27.916 8.80619C29.2786 6.6654 29.9984 4.22527 30.0004 1.73925C30.0004 1.51084 29.952 1.28466 29.8578 1.07362C29.7637 0.862588 29.6255 0.670837 29.4515 0.509318C29.2772 0.347799 29.0705 0.21968 28.8429 0.132277C28.6156 0.044875 28.3717 -9.74685e-05 28.1254 -7.26008e-05C26.1547 -0.0049628 24.2024 0.352751 22.3818 1.05237C20.5611 1.75198 18.9081 2.7796 17.5184 4.07575C16.5256 4.99637 15.6764 6.04124 14.9955 7.17999C13.6981 5.00628 11.7972 3.19419 9.49012 1.93174C7.183 0.669291 4.55367 0.00247757 1.875 0.000493491C1.62882 0.000443772 1.38505 0.0453704 1.15759 0.132705C0.930136 0.220039 0.723454 0.348072 0.549343 0.509494C0.375234 0.670917 0.237109 0.862569 0.142852 1.0735C0.0485953 1.28444 5.36654e-05 1.51053 7.35125e-08 1.73887ZM17.0662 11.9944C17.4837 9.92586 18.5655 8.02266 20.1699 6.53453C21.7741 5.04641 23.8261 4.04285 26.0561 3.65554C25.6355 5.72281 24.5525 7.62443 22.949 9.11204C21.3452 10.5997 19.295 11.6042 17.0662 11.9944ZM22.9514 18.7119C24.5562 20.1981 25.6386 22.1002 26.0561 24.1677C23.8285 23.7771 17.7375 26.1128 16.1345 24.6258C14.5313 23.1388 17.4902 17.8984 17.0691 15.8321C19.2983 16.2193 21.3488 17.2233 22.9514 18.7119ZM7.04493 18.7084C8.72696 17.1401 10.9062 16.1125 13.2636 15.7763C13.7055 18.7937 10.6089 25.8739 12.9303 28.0271C15.2517 30.1804 22.863 27.2883 26.1163 27.6982C25.8423 29.3263 25.1564 30.871 24.1148 32.2058C23.0734 33.5406 21.706 34.6279 20.1244 35.3782C18.5428 36.1287 16.7922 36.5211 15.0157 36.5234C13.2392 36.5254 11.4874 36.1376 9.90369 35.3911C8.31996 34.6445 6.94932 33.5609 5.90397 32.2285C4.8586 30.8964 4.16823 29.3533 3.88936 27.7261C3.61048 26.0988 3.75104 24.4333 4.2995 22.866C4.84798 21.2988 5.78879 19.8744 7.04493 18.7092V18.7084ZM3.94305 3.658C6.17085 4.04861 8.22003 5.05294 9.82322 6.53995C11.4264 8.02697 12.5092 9.92766 12.9303 11.994C10.7026 11.6033 8.65362 10.599 7.05058 9.11194C5.44752 7.62492 4.36489 5.72429 3.94387 3.658H3.94305Z" fill="#1E4660"/>
</g>
</svg>
