<svg width="114" height="20" viewBox="0 0 114 20" fill="none" xmlns="http://www.w3.org/2000/svg">
<path d="M0.207031 19V2.19531H5.53906C7.16406 2.19531 8.44922 2.55078 9.39453 3.26172C10.3477 3.97266 10.8242 4.89844 10.8242 6.03906C10.8242 6.99219 10.5547 7.82031 10.0156 8.52344C9.47656 9.22656 8.73047 9.72656 7.77734 10.0234V10.0703C8.93359 10.2031 9.85547 10.6328 10.543 11.3594C11.2383 12.0781 11.5859 13.0156 11.5859 14.1719C11.5859 15.6094 11.0195 16.7734 9.88672 17.6641C8.75391 18.5547 7.32422 19 5.59766 19H0.207031ZM2.98438 4.43359V9.21484H4.78906C5.75781 9.21484 6.51562 8.98828 7.0625 8.53516C7.61719 8.07422 7.89453 7.42578 7.89453 6.58984C7.89453 5.15234 6.93359 4.43359 5.01172 4.43359H2.98438ZM2.98438 11.4531V16.7734H5.36328C6.40234 16.7734 7.20312 16.5352 7.76562 16.0586C8.33594 15.5742 8.62109 14.9102 8.62109 14.0664C8.62109 12.3242 7.41406 11.4531 5 11.4531H2.98438ZM24.5703 13.7383H16.3906C16.4219 14.8477 16.7617 15.7031 17.4102 16.3047C18.0664 16.9062 18.9648 17.207 20.1055 17.207C21.3867 17.207 22.5625 16.8242 23.6328 16.0586V18.25C22.5391 18.9375 21.0938 19.2812 19.2969 19.2812C17.5312 19.2812 16.1445 18.7383 15.1367 17.6523C14.1367 16.5586 13.6367 15.0234 13.6367 13.0469C13.6367 11.1797 14.1875 9.66016 15.2891 8.48828C16.3984 7.30859 17.7734 6.71875 19.4141 6.71875C21.0547 6.71875 22.3242 7.24609 23.2227 8.30078C24.1211 9.35547 24.5703 10.8203 24.5703 12.6953V13.7383ZM21.9453 11.8164C21.9375 10.8398 21.707 10.082 21.2539 9.54297C20.8008 8.99609 20.1758 8.72266 19.3789 8.72266C18.5977 8.72266 17.9336 9.00781 17.3867 9.57812C16.8477 10.1484 16.5156 10.8945 16.3906 11.8164H21.9453ZM29.9258 17.2656H29.8789V19H27.1602V1.23438H29.8789V9.10938H29.9258C30.8555 7.51562 32.2148 6.71875 34.0039 6.71875C35.5195 6.71875 36.7031 7.25781 37.5547 8.33594C38.4141 9.40625 38.8438 10.8438 38.8438 12.6484C38.8438 14.6562 38.3633 16.2656 37.4023 17.4766C36.4414 18.6797 35.1289 19.2812 33.4648 19.2812C31.9023 19.2812 30.7227 18.6094 29.9258 17.2656ZM29.8555 12.4961V13.9844C29.8555 14.8594 30.1328 15.6016 30.6875 16.2109C31.25 16.8203 31.9609 17.125 32.8203 17.125C33.8281 17.125 34.6172 16.7344 35.1875 15.9531C35.7656 15.1641 36.0547 14.0664 36.0547 12.6602C36.0547 11.4805 35.7852 10.5586 35.2461 9.89453C34.7148 9.22266 33.9922 8.88672 33.0781 8.88672C32.1094 8.88672 31.3281 9.23047 30.7344 9.91797C30.1484 10.6055 29.8555 11.4648 29.8555 12.4961ZM51.7812 13.7383H43.6016C43.6328 14.8477 43.9727 15.7031 44.6211 16.3047C45.2773 16.9062 46.1758 17.207 47.3164 17.207C48.5977 17.207 49.7734 16.8242 50.8438 16.0586V18.25C49.75 18.9375 48.3047 19.2812 46.5078 19.2812C44.7422 19.2812 43.3555 18.7383 42.3477 17.6523C41.3477 16.5586 40.8477 15.0234 40.8477 13.0469C40.8477 11.1797 41.3984 9.66016 42.5 8.48828C43.6094 7.30859 44.9844 6.71875 46.625 6.71875C48.2656 6.71875 49.5352 7.24609 50.4336 8.30078C51.332 9.35547 51.7812 10.8203 51.7812 12.6953V13.7383ZM49.1562 11.8164C49.1484 10.8398 48.918 10.082 48.4648 9.54297C48.0117 8.99609 47.3867 8.72266 46.5898 8.72266C45.8086 8.72266 45.1445 9.00781 44.5977 9.57812C44.0586 10.1484 43.7266 10.8945 43.6016 11.8164H49.1562ZM49.9648 0.882812L46.6133 4.72656H44.5977L47.4336 0.882812H49.9648ZM60.2305 18.625V16.1055C61.2461 16.8789 62.3672 17.2656 63.5938 17.2656C65.2344 17.2656 66.0547 16.7812 66.0547 15.8125C66.0547 15.5391 65.9844 15.3086 65.8438 15.1211C65.7031 14.9258 65.5117 14.7539 65.2695 14.6055C65.0352 14.457 64.7539 14.3242 64.4258 14.207C64.1055 14.0898 63.7461 13.957 63.3477 13.8086C62.8555 13.6133 62.4102 13.4062 62.0117 13.1875C61.6211 12.9688 61.293 12.7227 61.0273 12.4492C60.7695 12.168 60.5742 11.8516 60.4414 11.5C60.3086 11.1484 60.2422 10.7383 60.2422 10.2695C60.2422 9.69141 60.3789 9.18359 60.6523 8.74609C60.9258 8.30078 61.293 7.92969 61.7539 7.63281C62.2148 7.32812 62.7383 7.10156 63.3242 6.95312C63.9102 6.79688 64.5156 6.71875 65.1406 6.71875C66.25 6.71875 67.2422 6.88672 68.1172 7.22266V9.60156C67.2734 9.02344 66.3047 8.73438 65.2109 8.73438C64.8672 8.73438 64.5547 8.76953 64.2734 8.83984C64 8.91016 63.7656 9.00781 63.5703 9.13281C63.375 9.25781 63.2227 9.41016 63.1133 9.58984C63.0039 9.76172 62.9492 9.95312 62.9492 10.1641C62.9492 10.4219 63.0039 10.6406 63.1133 10.8203C63.2227 11 63.3828 11.1602 63.5938 11.3008C63.8125 11.4336 64.0703 11.5586 64.3672 11.6758C64.6719 11.7852 65.0195 11.9062 65.4102 12.0391C65.9258 12.25 66.3867 12.4648 66.793 12.6836C67.207 12.9023 67.5586 13.1523 67.8477 13.4336C68.1367 13.707 68.3594 14.0273 68.5156 14.3945C68.6719 14.7539 68.75 15.1836 68.75 15.6836C68.75 16.293 68.6094 16.8242 68.3281 17.2773C68.0469 17.7305 67.6719 18.1055 67.2031 18.4023C66.7344 18.6992 66.1914 18.918 65.5742 19.0586C64.9648 19.207 64.3203 19.2812 63.6406 19.2812C62.3281 19.2812 61.1914 19.0625 60.2305 18.625ZM77.668 18.8711C77.1367 19.1367 76.4375 19.2695 75.5703 19.2695C73.2422 19.2695 72.0781 18.1523 72.0781 15.918V9.13281H70.0742V7H72.0781V4.22266L74.7969 3.44922V7H77.668V9.13281H74.7969V15.1328C74.7969 15.8438 74.9258 16.3516 75.1836 16.6562C75.4414 16.9609 75.8711 17.1133 76.4727 17.1133C76.9336 17.1133 77.332 16.9805 77.668 16.7148V18.8711ZM85.1914 19.2812C83.3398 19.2812 81.8594 18.7227 80.75 17.6055C79.6484 16.4805 79.0977 14.9922 79.0977 13.1406C79.0977 11.125 79.6719 9.55078 80.8203 8.41797C81.9766 7.28516 83.5312 6.71875 85.4844 6.71875C87.3594 6.71875 88.8203 7.26953 89.8672 8.37109C90.9141 9.47266 91.4375 11 91.4375 12.9531C91.4375 14.8672 90.8711 16.4023 89.7383 17.5586C88.6133 18.707 87.0977 19.2812 85.1914 19.2812ZM85.3203 8.88672C84.2578 8.88672 83.418 9.25781 82.8008 10C82.1836 10.7422 81.875 11.7656 81.875 13.0703C81.875 14.3281 82.1875 15.3203 82.8125 16.0469C83.4375 16.7656 84.2734 17.125 85.3203 17.125C86.3906 17.125 87.2109 16.7695 87.7812 16.0586C88.3594 15.3477 88.6484 14.3359 88.6484 13.0234C88.6484 11.7031 88.3594 10.6836 87.7812 9.96484C87.2109 9.24609 86.3906 8.88672 85.3203 8.88672ZM101.176 9.58984C100.848 9.33203 100.375 9.20312 99.7578 9.20312C98.9531 9.20312 98.2812 9.56641 97.7422 10.293C97.2031 11.0195 96.9336 12.0078 96.9336 13.2578V19H94.2148V7H96.9336V9.47266H96.9805C97.2461 8.62891 97.6523 7.97266 98.1992 7.50391C98.7539 7.02734 99.3711 6.78906 100.051 6.78906C100.543 6.78906 100.918 6.86328 101.176 7.01172V9.58984ZM113.047 13.7383H104.867C104.898 14.8477 105.238 15.7031 105.887 16.3047C106.543 16.9062 107.441 17.207 108.582 17.207C109.863 17.207 111.039 16.8242 112.109 16.0586V18.25C111.016 18.9375 109.57 19.2812 107.773 19.2812C106.008 19.2812 104.621 18.7383 103.613 17.6523C102.613 16.5586 102.113 15.0234 102.113 13.0469C102.113 11.1797 102.664 9.66016 103.766 8.48828C104.875 7.30859 106.25 6.71875 107.891 6.71875C109.531 6.71875 110.801 7.24609 111.699 8.30078C112.598 9.35547 113.047 10.8203 113.047 12.6953V13.7383ZM110.422 11.8164C110.414 10.8398 110.184 10.082 109.73 9.54297C109.277 8.99609 108.652 8.72266 107.855 8.72266C107.074 8.72266 106.41 9.00781 105.863 9.57812C105.324 10.1484 104.992 10.8945 104.867 11.8164H110.422Z" fill="black"/>
</svg>
