<svg width="115" height="20" viewBox="0 0 115 20" fill="none" xmlns="http://www.w3.org/2000/svg">
<path d="M3.69141 17.2656H3.64453V19H0.925781V1.23438H3.64453V9.10938H3.69141C4.62109 7.51562 5.98047 6.71875 7.76953 6.71875C9.28516 6.71875 10.4688 7.25781 11.3203 8.33594C12.1797 9.40625 12.6094 10.8438 12.6094 12.6484C12.6094 14.6562 12.1289 16.2656 11.168 17.4766C10.207 18.6797 8.89453 19.2812 7.23047 19.2812C5.66797 19.2812 4.48828 18.6094 3.69141 17.2656ZM3.62109 12.4961V13.9844C3.62109 14.8594 3.89844 15.6016 4.45312 16.2109C5.01562 16.8203 5.72656 17.125 6.58594 17.125C7.59375 17.125 8.38281 16.7344 8.95312 15.9531C9.53125 15.1641 9.82031 14.0664 9.82031 12.6602C9.82031 11.4805 9.55078 10.5586 9.01172 9.89453C8.48047 9.22266 7.75781 8.88672 6.84375 8.88672C5.875 8.88672 5.09375 9.23047 4.5 9.91797C3.91406 10.6055 3.62109 11.4648 3.62109 12.4961ZM25.5469 13.7383H17.3672C17.3984 14.8477 17.7383 15.7031 18.3867 16.3047C19.043 16.9062 19.9414 17.207 21.082 17.207C22.3633 17.207 23.5391 16.8242 24.6094 16.0586V18.25C23.5156 18.9375 22.0703 19.2812 20.2734 19.2812C18.5078 19.2812 17.1211 18.7383 16.1133 17.6523C15.1133 16.5586 14.6133 15.0234 14.6133 13.0469C14.6133 11.1797 15.1641 9.66016 16.2656 8.48828C17.375 7.30859 18.75 6.71875 20.3906 6.71875C22.0312 6.71875 23.3008 7.24609 24.1992 8.30078C25.0977 9.35547 25.5469 10.8203 25.5469 12.6953V13.7383ZM22.9219 11.8164C22.9141 10.8398 22.6836 10.082 22.2305 9.54297C21.7773 8.99609 21.1523 8.72266 20.3555 8.72266C19.5742 8.72266 18.9102 9.00781 18.3633 9.57812C17.8242 10.1484 17.4922 10.8945 17.3672 11.8164H22.9219ZM30.9023 17.2656H30.8555V19H28.1367V1.23438H30.8555V9.10938H30.9023C31.832 7.51562 33.1914 6.71875 34.9805 6.71875C36.4961 6.71875 37.6797 7.25781 38.5312 8.33594C39.3906 9.40625 39.8203 10.8438 39.8203 12.6484C39.8203 14.6562 39.3398 16.2656 38.3789 17.4766C37.418 18.6797 36.1055 19.2812 34.4414 19.2812C32.8789 19.2812 31.6992 18.6094 30.9023 17.2656ZM30.832 12.4961V13.9844C30.832 14.8594 31.1094 15.6016 31.6641 16.2109C32.2266 16.8203 32.9375 17.125 33.7969 17.125C34.8047 17.125 35.5938 16.7344 36.1641 15.9531C36.7422 15.1641 37.0312 14.0664 37.0312 12.6602C37.0312 11.4805 36.7617 10.5586 36.2227 9.89453C35.6914 9.22266 34.9688 8.88672 34.0547 8.88672C33.0859 8.88672 32.3047 9.23047 31.7109 9.91797C31.125 10.6055 30.832 11.4648 30.832 12.4961ZM52.7578 13.7383H44.5781C44.6094 14.8477 44.9492 15.7031 45.5977 16.3047C46.2539 16.9062 47.1523 17.207 48.293 17.207C49.5742 17.207 50.75 16.8242 51.8203 16.0586V18.25C50.7266 18.9375 49.2812 19.2812 47.4844 19.2812C45.7188 19.2812 44.332 18.7383 43.3242 17.6523C42.3242 16.5586 41.8242 15.0234 41.8242 13.0469C41.8242 11.1797 42.375 9.66016 43.4766 8.48828C44.5859 7.30859 45.9609 6.71875 47.6016 6.71875C49.2422 6.71875 50.5117 7.24609 51.4102 8.30078C52.3086 9.35547 52.7578 10.8203 52.7578 12.6953V13.7383ZM50.1328 11.8164C50.125 10.8398 49.8945 10.082 49.4414 9.54297C48.9883 8.99609 48.3633 8.72266 47.5664 8.72266C46.7852 8.72266 46.1211 9.00781 45.5742 9.57812C45.0352 10.1484 44.7031 10.8945 44.5781 11.8164H50.1328ZM50.9414 0.882812L47.5898 4.72656H45.5742L48.4102 0.882812H50.9414ZM61.207 18.625V16.1055C62.2227 16.8789 63.3438 17.2656 64.5703 17.2656C66.2109 17.2656 67.0312 16.7812 67.0312 15.8125C67.0312 15.5391 66.9609 15.3086 66.8203 15.1211C66.6797 14.9258 66.4883 14.7539 66.2461 14.6055C66.0117 14.457 65.7305 14.3242 65.4023 14.207C65.082 14.0898 64.7227 13.957 64.3242 13.8086C63.832 13.6133 63.3867 13.4062 62.9883 13.1875C62.5977 12.9688 62.2695 12.7227 62.0039 12.4492C61.7461 12.168 61.5508 11.8516 61.418 11.5C61.2852 11.1484 61.2188 10.7383 61.2188 10.2695C61.2188 9.69141 61.3555 9.18359 61.6289 8.74609C61.9023 8.30078 62.2695 7.92969 62.7305 7.63281C63.1914 7.32812 63.7148 7.10156 64.3008 6.95312C64.8867 6.79688 65.4922 6.71875 66.1172 6.71875C67.2266 6.71875 68.2188 6.88672 69.0938 7.22266V9.60156C68.25 9.02344 67.2812 8.73438 66.1875 8.73438C65.8438 8.73438 65.5312 8.76953 65.25 8.83984C64.9766 8.91016 64.7422 9.00781 64.5469 9.13281C64.3516 9.25781 64.1992 9.41016 64.0898 9.58984C63.9805 9.76172 63.9258 9.95312 63.9258 10.1641C63.9258 10.4219 63.9805 10.6406 64.0898 10.8203C64.1992 11 64.3594 11.1602 64.5703 11.3008C64.7891 11.4336 65.0469 11.5586 65.3438 11.6758C65.6484 11.7852 65.9961 11.9062 66.3867 12.0391C66.9023 12.25 67.3633 12.4648 67.7695 12.6836C68.1836 12.9023 68.5352 13.1523 68.8242 13.4336C69.1133 13.707 69.3359 14.0273 69.4922 14.3945C69.6484 14.7539 69.7266 15.1836 69.7266 15.6836C69.7266 16.293 69.5859 16.8242 69.3047 17.2773C69.0234 17.7305 68.6484 18.1055 68.1797 18.4023C67.7109 18.6992 67.168 18.918 66.5508 19.0586C65.9414 19.207 65.2969 19.2812 64.6172 19.2812C63.3047 19.2812 62.168 19.0625 61.207 18.625ZM78.6445 18.8711C78.1133 19.1367 77.4141 19.2695 76.5469 19.2695C74.2188 19.2695 73.0547 18.1523 73.0547 15.918V9.13281H71.0508V7H73.0547V4.22266L75.7734 3.44922V7H78.6445V9.13281H75.7734V15.1328C75.7734 15.8438 75.9023 16.3516 76.1602 16.6562C76.418 16.9609 76.8477 17.1133 77.4492 17.1133C77.9102 17.1133 78.3086 16.9805 78.6445 16.7148V18.8711ZM86.168 19.2812C84.3164 19.2812 82.8359 18.7227 81.7266 17.6055C80.625 16.4805 80.0742 14.9922 80.0742 13.1406C80.0742 11.125 80.6484 9.55078 81.7969 8.41797C82.9531 7.28516 84.5078 6.71875 86.4609 6.71875C88.3359 6.71875 89.7969 7.26953 90.8438 8.37109C91.8906 9.47266 92.4141 11 92.4141 12.9531C92.4141 14.8672 91.8477 16.4023 90.7148 17.5586C89.5898 18.707 88.0742 19.2812 86.168 19.2812ZM86.2969 8.88672C85.2344 8.88672 84.3945 9.25781 83.7773 10C83.1602 10.7422 82.8516 11.7656 82.8516 13.0703C82.8516 14.3281 83.1641 15.3203 83.7891 16.0469C84.4141 16.7656 85.25 17.125 86.2969 17.125C87.3672 17.125 88.1875 16.7695 88.7578 16.0586C89.3359 15.3477 89.625 14.3359 89.625 13.0234C89.625 11.7031 89.3359 10.6836 88.7578 9.96484C88.1875 9.24609 87.3672 8.88672 86.2969 8.88672ZM102.152 9.58984C101.824 9.33203 101.352 9.20312 100.734 9.20312C99.9297 9.20312 99.2578 9.56641 98.7188 10.293C98.1797 11.0195 97.9102 12.0078 97.9102 13.2578V19H95.1914V7H97.9102V9.47266H97.957C98.2227 8.62891 98.6289 7.97266 99.1758 7.50391C99.7305 7.02734 100.348 6.78906 101.027 6.78906C101.52 6.78906 101.895 6.86328 102.152 7.01172V9.58984ZM114.023 13.7383H105.844C105.875 14.8477 106.215 15.7031 106.863 16.3047C107.52 16.9062 108.418 17.207 109.559 17.207C110.84 17.207 112.016 16.8242 113.086 16.0586V18.25C111.992 18.9375 110.547 19.2812 108.75 19.2812C106.984 19.2812 105.598 18.7383 104.59 17.6523C103.59 16.5586 103.09 15.0234 103.09 13.0469C103.09 11.1797 103.641 9.66016 104.742 8.48828C105.852 7.30859 107.227 6.71875 108.867 6.71875C110.508 6.71875 111.777 7.24609 112.676 8.30078C113.574 9.35547 114.023 10.8203 114.023 12.6953V13.7383ZM111.398 11.8164C111.391 10.8398 111.16 10.082 110.707 9.54297C110.254 8.99609 109.629 8.72266 108.832 8.72266C108.051 8.72266 107.387 9.00781 106.84 9.57812C106.301 10.1484 105.969 10.8945 105.844 11.8164H111.398Z" fill="white"/>
</svg>
