<svg width="119" height="147" viewBox="0 0 119 147" fill="none" xmlns="http://www.w3.org/2000/svg">
<mask id="mask0_231_67" style="mask-type:luminance" maskUnits="userSpaceOnUse" x="0" y="0" width="119" height="147">
<path d="M119 0H0V147H119V0Z" fill="white"/>
</mask>
<g mask="url(#mask0_231_67)">
<path d="M94.4566 36.6161C107.002 27.989 113.61 17.1711 109.217 12.4539C104.824 7.73657 91.0932 10.9062 78.5481 19.5334C66.003 28.1606 59.3943 38.9783 63.7872 43.6957C68.1801 48.4129 81.9113 45.2433 94.4566 36.6161Z" fill="#29C16E"/>
<path d="M52.3814 45.088C56.1572 41.8434 50.8143 31.9914 40.4477 23.083C30.0812 14.1747 18.6165 9.58337 14.8408 12.828C11.065 16.0726 16.4079 25.9246 26.7745 34.8329C37.141 43.7413 48.6057 48.3326 52.3814 45.088Z" fill="#29C16E"/>
<path d="M103.192 93.0224C108.682 89.248 104.993 77.4483 94.9536 66.6676C84.9144 55.887 72.3256 50.208 66.8362 53.983C61.3467 57.758 65.0352 69.5576 75.0746 80.3379C85.1136 91.1185 97.7026 96.7975 103.192 93.0224Z" fill="#3CA4EF"/>
<path d="M12.2847 97.0883C12.2847 108.318 17.476 119.088 26.7166 127.029C35.9573 134.97 48.4903 139.431 61.5585 139.431C88.7724 139.431 129.393 101.073 103.52 93.8391C75.1327 85.9035 62.041 55.5671 56.1577 55.0002C29.1146 52.3923 12.2847 73.7031 12.2847 97.0883Z" fill="#3CA4EF"/>
<path d="M-1.15325e-05 6.3906C0.0139106 15.5205 2.86784 24.4812 8.26625 32.3446C13.6646 40.2081 21.4111 46.6884 30.7036 51.1144C25.8335 53.4355 21.3651 56.3304 17.4281 59.715C8.59611 67.2971 2.76238 77.074 0.752502 87.662C-1.25738 98.2499 0.658355 109.113 6.2286 118.714C11.7988 128.315 20.7415 136.168 31.7911 141.161C42.8408 146.153 55.4377 148.034 67.7995 146.536C80.1613 145.038 91.6623 140.237 100.674 132.813C109.686 125.389 115.752 115.718 118.016 105.167C120.279 94.6167 118.624 83.722 113.285 74.0245C107.947 64.3271 99.1937 56.318 88.2665 51.1304C97.5715 46.7106 105.329 40.2304 110.734 32.363C116.139 24.4956 118.994 15.5281 119.002 6.39199C119.002 5.5526 118.81 4.72138 118.436 3.94583C118.063 3.17028 117.515 2.46559 116.824 1.87201C116.133 1.27843 115.313 0.807588 114.41 0.486385C113.508 0.165181 112.541 -9.26937e-05 111.564 -1.30512e-06C103.747 -0.0179728 96.0027 1.29663 88.7813 3.86772C81.5591 6.43881 75.002 10.2153 69.4898 14.9787C65.5515 18.3619 62.183 22.2018 59.4822 26.3867C54.3359 18.3984 46.7957 11.7389 37.6441 7.09943C28.4926 2.45991 18.0629 0.00937056 7.43748 0.00207908C6.46099 0.00189636 5.49402 0.167002 4.59178 0.487956C3.68953 0.80891 2.86969 1.27943 2.17905 1.87266C1.48842 2.46588 0.940519 3.17021 0.566635 3.94539C0.19275 4.72059 0.000201049 5.55147 -1.15325e-05 6.3906ZM67.696 44.0797C69.3519 36.4778 73.6433 29.4835 80.0071 24.0147C86.3707 18.5458 94.51 14.8578 103.356 13.4344C101.688 21.0316 97.3918 28.02 91.0309 33.487C84.6692 38.954 76.5367 42.6456 67.696 44.0797ZM91.0406 68.7663C97.4063 74.2283 101.7 81.2185 103.356 88.8167C94.5197 87.381 70.3589 95.9647 64 90.5C57.6409 85.0353 69.3779 65.7769 67.7073 58.1833C76.5498 59.6063 84.6837 63.2957 91.0406 68.7663ZM27.9449 68.7538C34.6169 62.9901 43.2614 59.2137 52.6121 57.978C54.365 69.0673 42.0819 95.0867 51.2903 103C60.4986 110.913 90.6901 100.285 103.595 101.791C102.508 107.774 99.787 113.451 95.6554 118.357C91.5247 123.262 86.1003 127.258 79.8266 130.015C73.5531 132.773 66.6089 134.215 59.5622 134.224C52.5155 134.231 45.5668 132.806 39.2846 130.062C33.0025 127.319 27.5656 123.337 23.4191 118.44C19.2724 113.544 16.534 107.874 15.4278 101.894C14.3216 95.9134 14.8791 89.7927 17.0547 84.033C19.2303 78.2733 22.9622 73.0388 27.9449 68.7566V68.7538ZM15.6408 13.4434C24.4777 14.8789 32.6061 18.5698 38.9654 24.0346C45.3247 29.4994 49.6198 36.4844 51.2903 44.0783C42.4538 42.6425 34.326 38.9515 27.9673 33.4867C21.6085 28.0218 17.314 21.037 15.644 13.4434H15.6408Z" fill="#1E4660"/>
</g>
</svg>
