<svg width="415" height="202" viewBox="0 0 415 202" fill="none" xmlns="http://www.w3.org/2000/svg">
<path d="M62.3906 14.25H43.0781V72H31.9219V14.25H12.6562V4.78125H62.3906V14.25ZM76.5 13.9219C74.7188 13.9219 73.1875 13.3438 71.9062 12.1875C70.6562 11.0312 70.0312 9.5625 70.0312 7.78125C70.0312 6 70.6562 4.51562 71.9062 3.32812C73.1875 2.14062 74.7188 1.54688 76.5 1.54688C78.3438 1.54688 79.9062 2.14062 81.1875 3.32812C82.4688 4.51562 83.1094 6 83.1094 7.78125C83.1094 9.46875 82.4688 10.9219 81.1875 12.1406C79.9062 13.3281 78.3438 13.9219 76.5 13.9219ZM81.8906 72H71.0156V24H81.8906V72ZM136.781 50.9531H104.062C104.188 55.3906 105.547 58.8125 108.141 61.2188C110.766 63.625 114.359 64.8281 118.922 64.8281C124.047 64.8281 128.75 63.2969 133.031 60.2344V69C128.656 71.75 122.875 73.125 115.688 73.125C108.625 73.125 103.078 70.9531 99.0469 66.6094C95.0469 62.2344 93.0469 56.0938 93.0469 48.1875C93.0469 40.7188 95.25 34.6406 99.6562 29.9531C104.094 25.2344 109.594 22.875 116.156 22.875C122.719 22.875 127.797 24.9844 131.391 29.2031C134.984 33.4219 136.781 39.2812 136.781 46.7812V50.9531ZM126.281 43.2656C126.25 39.3594 125.328 36.3281 123.516 34.1719C121.703 31.9844 119.203 30.8906 116.016 30.8906C112.891 30.8906 110.234 32.0312 108.047 34.3125C105.891 36.5938 104.562 39.5781 104.062 43.2656H126.281ZM130.547 15.5625H123.047L115.5 5.67188L108.141 15.5625H100.875L111.375 0.1875H120L130.547 15.5625ZM116.719 88.3125C115.125 88.3125 113.75 87.7812 112.594 86.7188C111.469 85.6562 110.906 84.375 110.906 82.875C110.906 81.375 111.484 80.1094 112.641 79.0781C113.828 78.0781 115.188 77.5781 116.719 77.5781C118.312 77.5781 119.672 78.0781 120.797 79.0781C121.922 80.1094 122.484 81.375 122.484 82.875C122.484 84.375 121.922 85.6562 120.797 86.7188C119.672 87.7812 118.312 88.3125 116.719 88.3125ZM218.906 72H208.031V45.8438C208.031 40.8125 207.312 37.1719 205.875 34.9219C204.469 32.6719 202.078 31.5469 198.703 31.5469C195.859 31.5469 193.438 32.9688 191.438 35.8125C189.469 38.6562 188.484 42.0625 188.484 46.0312V72H177.562V44.9531C177.562 36.0156 174.406 31.5469 168.094 31.5469C165.156 31.5469 162.734 32.8906 160.828 35.5781C158.953 38.2656 158.016 41.75 158.016 46.0312V72H147.141V24H158.016V31.5938H158.203C161.672 25.7812 166.719 22.875 173.344 22.875C176.656 22.875 179.547 23.7969 182.016 25.6406C184.516 27.4531 186.219 29.8438 187.125 32.8125C190.688 26.1875 196 22.875 203.062 22.875C213.625 22.875 218.906 29.3906 218.906 42.4219V72ZM255.609 70.5V60.4219C259.672 63.5156 264.156 65.0625 269.062 65.0625C275.625 65.0625 278.906 63.125 278.906 59.25C278.906 58.1562 278.625 57.2344 278.062 56.4844C277.5 55.7031 276.734 55.0156 275.766 54.4219C274.828 53.8281 273.703 53.2969 272.391 52.8281C271.109 52.3594 269.672 51.8281 268.078 51.2344C266.109 50.4531 264.328 49.625 262.734 48.75C261.172 47.875 259.859 46.8906 258.797 45.7969C257.766 44.6719 256.984 43.4062 256.453 42C255.922 40.5938 255.656 38.9531 255.656 37.0781C255.656 34.7656 256.203 32.7344 257.297 30.9844C258.391 29.2031 259.859 27.7188 261.703 26.5312C263.547 25.3125 265.641 24.4062 267.984 23.8125C270.328 23.1875 272.75 22.875 275.25 22.875C279.688 22.875 283.656 23.5469 287.156 24.8906V34.4062C283.781 32.0938 279.906 30.9375 275.531 30.9375C274.156 30.9375 272.906 31.0781 271.781 31.3594C270.688 31.6406 269.75 32.0312 268.969 32.5312C268.188 33.0312 267.578 33.6406 267.141 34.3594C266.703 35.0469 266.484 35.8125 266.484 36.6562C266.484 37.6875 266.703 38.5625 267.141 39.2812C267.578 40 268.219 40.6406 269.062 41.2031C269.938 41.7344 270.969 42.2344 272.156 42.7031C273.375 43.1406 274.766 43.625 276.328 44.1562C278.391 45 280.234 45.8594 281.859 46.7344C283.516 47.6094 284.922 48.6094 286.078 49.7344C287.234 50.8281 288.125 52.1094 288.75 53.5781C289.375 55.0156 289.688 56.7344 289.688 58.7344C289.688 61.1719 289.125 63.2969 288 65.1094C286.875 66.9219 285.375 68.4219 283.5 69.6094C281.625 70.7969 279.453 71.6719 276.984 72.2344C274.547 72.8281 271.969 73.125 269.25 73.125C264 73.125 259.453 72.25 255.609 70.5ZM341.906 72H331.031V64.5469H330.844C327.719 70.2031 322.75 73.0312 315.938 73.0312C304.719 73.0312 299.109 66.2344 299.109 52.6406V24H309.984V51.5625C309.984 60.1875 313.328 64.5 320.016 64.5C323.234 64.5 325.875 63.3125 327.938 60.9375C330 58.5625 331.031 55.4531 331.031 51.6094V24H340.266C342.016 24 343.484 23.3906 344.672 22.1719C345.859 20.9531 346.453 19.4844 346.453 17.7656C346.453 15.7031 346.141 13.8438 345.516 12.1875H352.875C353.438 13.8438 353.719 15.8438 353.719 18.1875C353.719 24.8125 349.781 28.7188 341.906 29.9062V72ZM336.656 2.85938C336.656 6.48438 335.844 9.45312 334.219 11.7656C332.625 14.0469 330.453 15.1875 327.703 15.1875C325.453 15.1875 322.875 14.4375 319.969 12.9375C317.531 11.5312 315.641 10.8281 314.297 10.8281C311.672 10.8281 310.359 12.5625 310.359 16.0312H304.969C304.969 12.3125 305.766 9.34375 307.359 7.125C308.953 4.875 311.188 3.75 314.062 3.75C316.188 3.75 318.641 4.54688 321.422 6.14062C323.672 7.51562 325.625 8.20312 327.281 8.20312C329.812 8.20312 331.078 6.42188 331.078 2.85938H336.656ZM396.797 72H386.25V64.5H386.062C382.75 70.25 377.891 73.125 371.484 73.125C366.766 73.125 363.062 71.8438 360.375 69.2812C357.719 66.7188 356.391 63.3281 356.391 59.1094C356.391 50.0469 361.609 44.7656 372.047 43.2656L386.297 41.25C386.297 34.4062 383.047 30.9844 376.547 30.9844C370.828 30.9844 365.672 32.9531 361.078 36.8906V27.375C366.141 24.375 371.984 22.875 378.609 22.875C390.734 22.875 396.797 28.8438 396.797 40.7812V72ZM386.297 48.4219L376.219 49.8281C373.094 50.2344 370.734 51 369.141 52.125C367.578 53.2188 366.797 55.1562 366.797 57.9375C366.797 59.9688 367.516 61.6406 368.953 62.9531C370.422 64.2344 372.375 64.875 374.812 64.875C378.125 64.875 380.859 63.7188 383.016 61.4062C385.203 59.0625 386.297 56.125 386.297 52.5938V48.4219ZM71.9062 200H61.0312V173.844C61.0312 168.812 60.3125 165.172 58.875 162.922C57.4688 160.672 55.0781 159.547 51.7031 159.547C48.8594 159.547 46.4375 160.969 44.4375 163.812C42.4688 166.656 41.4844 170.062 41.4844 174.031V200H30.5625V172.953C30.5625 164.016 27.4062 159.547 21.0938 159.547C18.1562 159.547 15.7344 160.891 13.8281 163.578C11.9531 166.266 11.0156 169.75 11.0156 174.031V200H0.140625V152H11.0156V159.594H11.2031C14.6719 153.781 19.7188 150.875 26.3438 150.875C29.6562 150.875 32.5469 151.797 35.0156 153.641C37.5156 155.453 39.2188 157.844 40.125 160.812C43.6875 154.188 49 150.875 56.0625 150.875C66.625 150.875 71.9062 157.391 71.9062 170.422V200ZM122.016 200H111.469V192.5H111.281C107.969 198.25 103.109 201.125 96.7031 201.125C91.9844 201.125 88.2812 199.844 85.5938 197.281C82.9375 194.719 81.6094 191.328 81.6094 187.109C81.6094 178.047 86.8281 172.766 97.2656 171.266L111.516 169.25C111.516 162.406 108.266 158.984 101.766 158.984C96.0469 158.984 90.8906 160.953 86.2969 164.891V155.375C91.3594 152.375 97.2031 150.875 103.828 150.875C115.953 150.875 122.016 156.844 122.016 168.781V200ZM111.516 176.422L101.438 177.828C98.3125 178.234 95.9531 179 94.3594 180.125C92.7969 181.219 92.0156 183.156 92.0156 185.938C92.0156 187.969 92.7344 189.641 94.1719 190.953C95.6406 192.234 97.5938 192.875 100.031 192.875C103.344 192.875 106.078 191.719 108.234 189.406C110.422 187.062 111.516 184.125 111.516 180.594V176.422ZM92.8594 135.781H85.4531L74.1562 124.25H84.4219L92.8594 135.781ZM89.2031 142.906L99.5625 131.188H108.047L118.406 142.906H111.281L104.016 136.203L96.5625 142.906H89.2031ZM178.078 200H167.203V172.953C167.203 163.984 164.031 159.5 157.688 159.5C154.375 159.5 151.641 160.75 149.484 163.25C147.328 165.719 146.25 168.844 146.25 172.625V200H135.328V152H146.25V159.969H146.438C150.031 153.906 155.219 150.875 162 150.875C167.219 150.875 171.203 152.578 173.953 155.984C176.703 159.359 178.078 164.25 178.078 170.656V200ZM257.953 152L241.969 176.281L257.766 200H245.156L236.719 185.141C236.188 184.234 235.562 183.078 234.844 181.672H234.656C234.531 181.953 233.875 183.109 232.688 185.141L224.109 200H211.547L227.859 176.469L212.391 152H225.047L233.344 167.609C233.969 168.766 234.578 169.953 235.172 171.172H235.312L246.047 152H257.953ZM302.766 200H292.219V192.5H292.031C288.719 198.25 283.859 201.125 277.453 201.125C272.734 201.125 269.031 199.844 266.344 197.281C263.688 194.719 262.359 191.328 262.359 187.109C262.359 178.047 267.578 172.766 278.016 171.266L292.266 169.25C292.266 162.406 289.016 158.984 282.516 158.984C276.797 158.984 271.641 160.953 267.047 164.891V155.375C272.109 152.375 277.953 150.875 284.578 150.875C296.703 150.875 302.766 156.844 302.766 168.781V200ZM292.266 176.422L282.188 177.828C279.062 178.234 276.703 179 275.109 180.125C273.547 181.219 272.766 183.156 272.766 185.938C272.766 187.969 273.484 189.641 274.922 190.953C276.391 192.234 278.344 192.875 280.781 192.875C284.094 192.875 286.828 191.719 288.984 189.406C291.172 187.062 292.266 184.125 292.266 180.594V176.422ZM358.828 200H347.953V172.953C347.953 163.984 344.781 159.5 338.438 159.5C335.125 159.5 332.391 160.75 330.234 163.25C328.078 165.719 327 168.844 327 172.625V200H316.078V152H327V159.969H327.188C330.781 153.906 335.969 150.875 342.75 150.875C347.969 150.875 351.953 152.578 354.703 155.984C357.453 159.359 358.828 164.25 358.828 170.656V200ZM414.797 200H403.922V173.75C403.922 164.25 400.75 159.5 394.406 159.5C391.219 159.5 388.531 160.875 386.344 163.625C384.156 166.375 383.062 169.891 383.062 174.172V200H372.141V128.938H383.062V159.969H383.25C386.875 153.906 392.062 150.875 398.812 150.875C409.469 150.875 414.797 157.391 414.797 170.422V200Z" fill="black"/>
</svg>
