<svg width="19" height="17" viewBox="0 0 19 17" fill="none" xmlns="http://www.w3.org/2000/svg">
    <path d="m11.2 2.557.016.019.017.017c.931.94 1.492 1.972 1.716 3.104a6.445 6.445 0 0 1-.345 3.58c-.45 1.132-1.238 2.05-2.28 2.752a5.973 5.973 0 0 1-3.418 1.034c-1.58 0-3.182-.688-4.327-1.844l-.014-.014-.014-.013C1.438 10.182.75 8.58.75 6.97c0-1.276.342-2.423 1.027-3.46.678-1.026 1.705-1.836 2.852-2.3C5.771.752 6.904.635 8.171.867c1.145.232 2.262.807 3.029 1.69z" stroke="currentColor" stroke-width="1.5" stroke-miterlimit="10"/>
    <path d="M11.87 11.47 17 15.937" stroke="currentColor" stroke-width="1.5" stroke-miterlimit="10" stroke-linecap="round"/>
</svg>
